<svg xmlns="http://www.w3.org/2000/svg" version="1.1" xmlns:xlink="http://www.w3.org/1999/xlink" xmlns:svgjs="http://svgjs.dev/svgjs" width="100%" height="100%" viewBox="0 0 1000 600"><rect width="1000" height="600" x="0" y="0" fill="black"/><g><circle r="166.66666666666666" cx="349.30749003092444" cy="371.5297320578396" fill="white" transform="matrix(0.684403378261415,0,0,0.684403378261415,0,45.72380073703685)"/><path d="M432.58131814765346 296.5297366540046L432.58131814765346 296.5297366540046Q433.3846026276249 296.5297366540046 433.3846026276249 298.83248549658924Q433.3846026276249 301.13523433917396 432.58131814765346 301.13523433917396L432.58131814765346 301.13523433917396Q422.94190438799654 301.13523433917396 416.1943147562367 307.1330917896272Q409.4467251244768 313.0773969414156 402.913344687376 329.3037434368381L402.913344687376 329.3037434368381L354.7162758890914 444.97670855272133Q354.34140979843806 446.5297252139993 350.64630119056955 446.5297252139993Q347.0047448813658 446.5297252139993 346.2014604013944 444.97670855272133L346.2014604013944 444.97670855272133L292.2207433473156 328.50045895686674Q284.1343462489367 311.14951418948425 278.93977327845494 306.1691504136615Q273.74520030797316 301.13523433917396 266.40853539090097 301.13523433917396L266.40853539090097 301.13523433917396Q265.2303848202762 301.13523433917396 265.2303848202762 298.83248549658924Q265.2303848202762 296.5297366540046 266.40853539090097 296.5297366540046L266.40853539090097 296.5297366540046Q272.19218364669507 296.5297366540046 278.93977327845494 296.9046027446579Q285.6873629102148 297.27946883531126 293.024027827287 297.27946883531126L293.024027827287 297.27946883531126Q306.1443410001534 297.27946883531126 315.78375475981034 296.9046027446579Q325.42316851946725 296.5297366540046 333.50956561784614 296.5297366540046L333.50956561784614 296.5297366540046Q334.6341638898061 296.5297366540046 334.6341638898061 298.83248549658924Q334.6341638898061 301.13523433917396 333.50956561784614 301.13523433917396L333.50956561784614 301.13523433917396Q321.5674030156045 301.13523433917396 314.60560418918556 304.0270584670711Q307.64380536276667 306.9188825949682 311.9279892559475 316.1834302639718L311.9279892559475 316.1834302639718L361.24965632619217 421.0388310495732L350.05722590525716 436.8903114543424L395.2018136796505 327.37586068490674Q400.9854619354446 313.50581533073375 394.23787230368475 307.2937486856215Q387.49028267192494 301.13523433917396 367.40817067263964 301.13523433917396L367.40817067263964 301.13523433917396Q366.658438491333 301.13523433917396 366.658438491333 298.83248549658924Q366.658438491333 296.5297366540046 367.40817067263964 296.5297366540046L367.40817067263964 296.5297366540046Q376.67271834164325 296.5297366540046 384.97332463468115 296.9046027446579Q393.2739309277191 297.27946883531126 406.39424410058547 297.27946883531126L406.39424410058547 297.27946883531126Q414.48064119896435 297.27946883531126 419.6752141694461 296.9046027446579Q424.8697871399279 296.5297366540046 432.58131814765346 296.5297366540046Z " fill="black" transform="matrix(0.684403378261415,0,0,0.684403378261415,0,45.72380073703685)"/><path d="M687.5178774499805 365.4326144036984L687.5178774499805 365.4326144036984Q687.941287285194 365.4326144036984 687.941287285194 366.64638926464386Q687.941287285194 367.86016412558945 687.5178774499805 367.86016412558945L687.5178774499805 367.86016412558945Q682.4369594274178 367.86016412558945 678.880316811624 371.02162422851734Q675.32367419583 374.15485700909767 671.8799408694264 382.7077356804116L671.8799408694264 382.7077356804116L646.4753507566129 443.67875195116403Q646.2777595001799 444.49734429924354 644.3300742581976 444.49734429924354Q642.4106163385627 444.49734429924354 641.9872065033492 443.67875195116403L641.9872065033492 443.67875195116403L613.534065576998 382.28432584519794Q609.2717399025148 373.1386734045851 606.5336896348006 370.513532426261Q603.7956393670861 367.86016412558945 599.928496205469 367.86016412558945L599.928496205469 367.86016412558945Q599.3074951138224 367.86016412558945 599.3074951138224 366.64638926464386Q599.3074951138224 365.4326144036984 599.928496205469 365.4326144036984L599.928496205469 365.4326144036984Q602.9770470190066 365.4326144036984 606.5336896348006 365.6302056601313Q610.0903322505944 365.82779691656435 613.9574754122116 365.82779691656435L613.9574754122116 365.82779691656435Q620.8731693873664 365.82779691656435 625.9540874099291 365.6302056601313Q631.0350054324917 365.4326144036984 635.297331106975 365.4326144036984L635.297331106975 365.4326144036984Q635.8901048762739 365.4326144036984 635.8901048762739 366.64638926464386Q635.8901048762739 367.86016412558945 635.297331106975 367.86016412558945L635.297331106975 367.86016412558945Q629.0026382234666 367.86016412558945 625.3330863182825 369.3844395323582Q621.6635344130983 370.908714939127 623.921720200904 375.7920417052568L623.921720200904 375.7920417052568L649.9190840830165 431.0611388617999L644.0195737123743 439.4164262766808L667.8152064513763 381.69155207589904Q670.8637572649138 374.3806755878783 667.30711464912 371.10630619556Q663.7504720333261 367.86016412558945 653.1652261529871 367.86016412558945L653.1652261529871 367.86016412558945Q652.7700436401211 367.86016412558945 652.7700436401211 366.64638926464386Q652.7700436401211 365.4326144036984 653.1652261529871 365.4326144036984L653.1652261529871 365.4326144036984Q658.0485529191168 365.4326144036984 662.4237878829903 365.6302056601313Q666.7990228468636 365.82779691656435 673.7147168220185 365.82779691656435L673.7147168220185 365.82779691656435Q677.9770424965017 365.82779691656435 680.715092764216 365.6302056601313Q683.4531430319304 365.4326144036984 687.5178774499805 365.4326144036984ZM698.8934883560514 443.87634320759696L698.8934883560514 443.87634320759696Q698.4983058431854 443.87634320759696 698.4983058431854 442.6625683466515Q698.4983058431854 441.4487934857059 698.8934883560514 441.4487934857059L698.8934883560514 441.4487934857059Q706.8253659357188 441.4487934857059 709.3658249470002 438.682515895644Q711.9062839582815 435.9444656279296 711.9062839582815 427.4198142789634L711.9062839582815 427.4198142789634L711.9062839582815 389.3976110767858Q711.9062839582815 382.28432584519794 710.494917840903 378.9535018081847Q709.0553244011769 375.59445044882375 705.2164085619072 375.59445044882375L705.2164085619072 375.59445044882375Q703.5792238657482 375.59445044882375 701.34926540029 376.300133507513Q699.119306934832 377.00581656620227 696.0707561212944 378.44541000592835L696.0707561212944 378.44541000592835Q695.2521637732149 378.6430012623614 694.7440719709585 377.5139083684586Q694.2359801687023 376.41304279690326 694.8287539380012 375.9896329616897L694.8287539380012 375.9896329616897L721.2495276553274 363.79542970753926Q721.870528746974 363.5978384511062 722.0681200034069 363.5978384511062L722.0681200034069 363.5978384511062Q722.4915298386204 363.5978384511062 723.0843036079194 364.10593025336254Q723.705304699566 364.61402205561876 723.705304699566 365.23502314726534L723.705304699566 365.23502314726534Q723.705304699566 366.8439805210769 723.5077134431331 373.1386734045851Q723.2818948643525 379.4615936104409 723.2818948643525 389.20001982035274L723.2818948643525 389.20001982035274L723.2818948643525 427.4198142789634Q723.2818948643525 435.9444656279296 725.6247626192007 438.682515895644Q727.9676303740491 441.4487934857059 736.0970992101495 441.4487934857059L736.0970992101495 441.4487934857059Q736.7181003017961 441.4487934857059 736.7181003017961 442.6625683466515Q736.7181003017961 443.87634320759696 736.0970992101495 443.87634320759696L736.0970992101495 443.87634320759696Q732.4275473049653 443.87634320759696 727.6571298282258 443.67875195116403Q722.8867123514865 443.481160694731 717.6082030724907 443.481160694731L717.6082030724907 443.481160694731Q712.329693793495 443.481160694731 707.531048994408 443.67875195116403Q702.7606315176686 443.87634320759696 698.8934883560514 443.87634320759696ZM715.9710183763316 339.83043303445186L715.9710183763316 339.83043303445186Q711.9062839582815 339.83043303445186 709.4787342363904 337.57224724664616Q707.0229571921518 335.34228878118813 707.0229571921518 331.27755436313794L707.0229571921518 331.27755436313794Q707.0229571921518 327.21281994508774 709.4787342363904 324.9828614796297Q711.9062839582815 322.75290301417164 715.9710183763316 322.75290301417164L715.9710183763316 322.75290301417164Q720.0357527943818 322.75290301417164 722.2657112598399 324.9828614796297Q724.5238970476455 327.21281994508774 724.5238970476455 331.27755436313794L724.5238970476455 331.27755436313794Q724.5238970476455 339.83043303445186 715.9710183763316 339.83043303445186ZM795.0357482718769 446.52971150826863L795.0357482718769 446.52971150826863Q787.1038706922095 446.52971150826863 779.3978116913228 443.9892524969873Q771.6635253680884 441.4487934857059 764.5502401365006 435.3516918586307L764.5502401365006 435.3516918586307L774.0910750899795 417.2579782338379Q774.0910750899795 426.60122193088375 778.7768105996762 432.1902317557028Q783.4625461093729 437.7792415805218 789.8419209599239 440.20679130241285Q796.2495231328223 442.6625683466515 801.3304411553851 442.6625683466515L801.3304411553851 442.6625683466515Q813.1294618966696 442.6625683466515 819.7346553260011 433.51691590603855Q826.3398487553326 424.3712634654257 826.3398487553326 407.29373344514556L826.3398487553326 407.29373344514556Q826.3398487553326 388.38142747227323 819.0289722673119 378.9535018081847Q811.6898684569435 369.49734882174846 800.3142575508725 369.49734882174846L800.3142575508725 369.49734882174846Q791.9871974583393 369.49734882174846 784.8739122267514 374.6629488113539Q777.7606269951636 379.8567761233069 771.6635253680884 386.34906026324813L771.6635253680884 386.34906026324813L770.0263406719293 384.9376941458696Q774.31689366876 380.25195863617284 779.5954029477557 375.08635864656753Q784.8739122267514 369.89253133461455 791.676696912516 366.33588871882057Q798.4794815982805 362.7792461030267 807.0323602695944 362.7792461030267L807.0323602695944 362.7792461030267Q815.7546028749937 362.7792461030267 823.093706685362 366.95688981046715Q830.4045831733829 371.10630619556 835.062091360732 379.4615936104409Q839.7478268704286 387.7886537029742 839.7478268704286 400.37803946999077L839.7478268704286 400.37803946999077Q839.7478268704286 415.8183847941118 833.1426334410971 426.09313012862754Q826.5374400117656 436.36787546314326 816.26269467725 441.4487934857059Q806.0161766650818 446.52971150826863 795.0357482718769 446.52971150826863ZM774.0910750899795 434.5330995105511L751.9608543694842 444.8925268121095Q751.1422620214046 445.09011806854255 750.718852186191 444.18684375342025Q750.3236696733251 443.2553421159504 750.9446707649716 442.8601596030844L750.9446707649716 442.8601596030844Q756.8159538132663 438.79542518503433 759.7798226597612 434.92828202341707Q762.7154641839086 431.0611388617999 762.7154641839086 422.93167002569965L762.7154641839086 422.93167002569965L762.7154641839086 322.55531175773865Q762.7154641839086 315.2162079473703 761.3040980665301 311.97006587739963Q759.8645046268039 308.72392380742906 756.0255887875343 308.72392380742906L756.0255887875343 308.72392380742906Q752.7512193952161 308.72392380742906 746.8799363469215 311.3772921081007L746.8799363469215 311.3772921081007Q746.061343998842 311.7724746209667 745.5532521965856 310.5586997600211Q745.0451603943293 309.34492489907564 745.8637527424089 309.11910632029503L745.8637527424089 309.11910632029503L771.2683428552225 296.7273118097115Q771.8611166245214 296.52972055327854 772.2845264597349 296.52972055327854L772.2845264597349 296.52972055327854Q772.877300229034 296.52972055327854 773.4983013206805 297.0378123555348Q774.0910750899795 297.5459041577911 774.0910750899795 298.16690524943766L774.0910750899795 298.16690524943766L774.0910750899795 434.5330995105511ZM891.7707819570012 446.30389292948803L891.7707819570012 446.30389292948803Q879.5765787028507 446.30389292948803 871.2495186103174 440.71488310466907Q862.9224585177842 435.1258732798501 858.7448148103437 426.2060394180178Q854.5953984252508 417.2579782338379 854.5953984252508 407.29373344514556L854.5953984252508 407.29373344514556Q854.5953984252508 394.90193893456205 860.2690902171125 385.05060343525986Q865.9710093313217 375.1710406136102 875.8223448306239 369.3844395323582Q885.6736803299261 363.5978384511062 897.4727010712105 363.5978384511062L897.4727010712105 363.5978384511062Q909.0459032337144 363.5978384511062 915.058322893747 369.6949400781815Q921.0425152314319 375.7920417052568 921.0425152314319 386.77247009846167L921.0425152314319 386.77247009846167Q921.0425152314319 389.3976110767858 920.5344234291756 390.7242952271216Q920.0263316269194 392.05097937745745 918.614965509541 392.05097937745745L918.614965509541 392.05097937745745L907.2111272811223 392.05097937745745Q908.029719629202 379.65918486687394 903.5698026982857 373.64676520684134Q899.0816584450221 367.6625728691564 890.7545983524888 367.6625728691564L890.7545983524888 367.6625728691564Q879.9999885380644 367.6625728691564 873.9875688780319 376.18722421812276Q868.0033765403468 384.74010288943657 868.0033765403468 399.55944712191115L868.0033765403468 399.55944712191115Q868.0033765403468 411.1608766067627 871.6447011231835 420.1089377909426Q875.3142530283676 429.0287716527748 882.4275382599554 434.10968967533756Q889.5408234915432 439.1906076979003 899.7026595366686 439.1906076979003L899.7026595366686 439.1906076979003Q906.6183535118234 439.1906076979003 911.0782704427395 437.1582404888752Q915.5664146960032 435.1258732798501 920.0263316269194 432.500732301526L920.0263316269194 432.500732301526Q920.4215141397854 432.07732246631247 921.1554245208222 433.00882410378233Q921.8611075795116 433.9120984189045 921.437697744298 434.5330995105511L921.437697744298 434.5330995105511Q914.3244125127101 440.8277923940593 906.9288540576467 443.5658426617737Q899.5050682802356 446.30389292948803 891.7707819570012 446.30389292948803ZM910.25967809466 392.05097937745745L864.3338246351627 392.2485706338904L864.1362333787297 389.6234296555664L910.25967809466 388.80483730748676L910.25967809466 392.05097937745745ZM968.4079621306554 446.30389292948803L968.4079621306554 446.30389292948803Q963.5246353645257 446.30389292948803 959.036491111262 444.77961752271926Q954.5765741803459 443.2553421159504 951.7256146232412 439.61401753311384Q948.8746550661365 435.9444656279296 948.8746550661365 429.6497727444214L948.8746550661365 429.6497727444214L948.8746550661365 381.88914333233197Q948.8746550661365 377.00581656620227 948.2818812968376 374.5782668443112Q947.660880205191 372.1224898000726 945.430921739733 371.4168067413833Q943.2009632742748 370.71112368269405 938.5152277645782 370.71112368269405L938.5152277645782 370.71112368269405Q937.6966354164986 370.71112368269405 937.6966354164986 369.3844395323582Q937.6966354164986 368.0577553820224 938.5152277645782 368.0577553820224L938.5152277645782 368.0577553820224Q946.6446966006785 367.86016412558945 951.8385239126314 363.5978384511062Q957.0041239022369 359.3355127766231 957.6251249938834 352.61741005790134L957.6251249938834 352.61741005790134Q957.6251249938834 352.0246362886023 959.1494004006522 352.0246362886023Q960.6736758074211 352.0246362886023 960.6736758074211 352.61741005790134L960.6736758074211 352.61741005790134L960.6736758074211 422.7340787692666Q960.6736758074211 431.0611388617999 964.8513195148615 435.1258732798501Q969.0007358999544 439.1906076979003 976.7350222231887 439.1906076979003L976.7350222231887 439.1906076979003Q982.0135315021845 439.1906076979003 986.1911752096248 437.4687410346985Q990.3405915947178 435.7468743714967 992.9939598953894 433.51691590603855L992.9939598953894 433.51691590603855Q993.8125522434689 433.093506070825 994.5182353021582 434.0250077082949Q995.2239183608474 434.92828202341707 994.405326012768 435.54928311506364L994.405326012768 435.54928311506364Q986.8968582683142 441.2229749069254 980.8844386082817 443.7634339182067Q974.9002462705967 446.30389292948803 968.4079621306554 446.30389292948803ZM988.1106331292597 375.3968591923907L988.1106331292597 375.3968591923907Q980.1787555495923 373.3644919833657 972.8678790615716 372.74349089171915Q965.5570025735508 372.1224898000726 957.2299424810174 372.1224898000726L957.2299424810174 372.1224898000726L957.2299424810174 367.6625728691564Q965.3594113171177 367.6625728691564 972.8678790615716 367.04157177750983Q980.3763468060254 366.44879800821093 988.9292254773392 365.6302056601313L988.9292254773392 365.6302056601313Q989.3244079902051 365.6302056601313 989.8324997924615 367.04157177750983Q990.3405915947178 368.4811652172359 990.3405915947178 370.513532426261L990.3405915947178 370.513532426261Q990.3405915947178 371.92489854363964 989.6349085360284 373.7596744962317Q988.9292254773392 375.59445044882375 988.1106331292597 375.3968591923907ZM1035.871262541349 445.5135279037561L1035.871262541349 445.5135279037561Q1025.9070177526567 445.5135279037561 1020.1204166714048 439.1059257308576Q1014.3338155901528 432.69832355795904 1014.3338155901528 420.5041203038086L1014.3338155901528 420.5041203038086L1014.3338155901528 389.3976110767858Q1014.3338155901528 381.493960819466 1013.0071314398169 377.93731820367213Q1011.6804472894812 374.3806755878783 1008.2367139630775 374.3806755878783L1008.2367139630775 374.3806755878783Q1005.3857544059729 374.3806755878783 1001.3210199879227 376.41304279690326L1001.3210199879227 376.41304279690326Q1000.5024276398431 376.6106340533363 999.9943358375868 375.3968591923907Q999.4862440353306 374.15485700909767 1000.3048363834102 373.9572657526646L1000.3048363834102 373.9572657526646L1022.8584669391191 363.79542970753926Q1023.2818767743327 363.5978384511062 1023.6770592871986 363.5978384511062L1023.6770592871986 363.5978384511062Q1024.298060378845 363.5978384511062 1025.0037434375345 364.10593025336254Q1025.7094264962238 364.61402205561876 1025.7094264962238 365.23502314726534L1025.7094264962238 365.23502314726534L1025.7094264962238 413.7860175850868Q1025.7094264962238 425.78262958280425 1029.9717521707068 431.56923066405625Q1034.23407784519 437.3840590676558 1042.7869565165038 437.3840590676558L1042.7869565165038 437.3840590676558Q1050.4930155173906 437.3840590676558 1058.3402111300152 432.69832355795904Q1066.1591794202923 428.0125880482623 1072.0586897909345 420.1089377909426L1072.0586897909345 420.1089377909426L1073.0748733954472 422.33889625640063Q1063.7034023760539 434.33550825411817 1054.670659224831 439.9245180789371Q1045.6379160736085 445.5135279037561 1035.871262541349 445.5135279037561ZM1079.5671575353883 365.23502314726534L1079.5671575353883 365.23502314726534L1079.5671575353883 422.1413049999677Q1079.5671575353883 429.0287716527748 1081.2043422315473 432.07732246631247Q1082.813299605359 435.1258732798501 1086.680442766976 435.1258732798501L1086.680442766976 435.1258732798501Q1088.7128099760012 435.1258732798501 1091.2532689872826 434.42019022116085Q1093.793727998564 433.7145071624716 1097.4632799037481 432.30314104509307L1097.4632799037481 432.30314104509307Q1098.4794635082608 431.87973120987954 1098.8746460211266 433.00882410378233Q1099.2698285339927 434.10968967533756 1098.4794635082608 434.5330995105511L1098.4794635082608 434.5330995105511L1074.6838307692587 445.7111191601891Q1074.2886482563927 445.90871041662206 1073.8652384211791 445.90871041662206L1073.8652384211791 445.90871041662206Q1072.2562810473676 445.90871041662206 1070.2239138383425 441.5334754527487Q1068.1915466293174 437.1582404888752 1068.1915466293174 429.0287716527748L1068.1915466293174 429.0287716527748L1068.1915466293174 389.3976110767858Q1068.1915466293174 381.493960819466 1066.8648624789816 377.93731820367213Q1065.5381783286457 374.3806755878783 1062.094445002242 374.3806755878783L1062.094445002242 374.3806755878783Q1059.2434854451376 374.3806755878783 1055.1787510270874 376.41304279690326L1055.1787510270874 376.41304279690326Q1054.3601586790078 376.6106340533363 1053.9649761661417 375.3968591923907Q1053.5415663309282 374.15485700909767 1054.3601586790078 373.9572657526646L1054.3601586790078 373.9572657526646L1076.9137892347167 363.79542970753926Q1077.3371990699302 363.5978384511062 1077.5347903263632 363.5978384511062L1077.5347903263632 363.5978384511062Q1078.1557914180098 363.5978384511062 1078.8614744766992 364.10593025336254Q1079.5671575353883 364.61402205561876 1079.5671575353883 365.23502314726534ZM1162.8942131054168 443.87634320759696L1162.8942131054168 443.87634320759696Q1162.2732120137703 443.87634320759696 1162.2732120137703 442.6625683466515Q1162.2732120137703 441.4487934857059 1162.8942131054168 441.4487934857059L1162.8942131054168 441.4487934857059Q1170.8260906850842 441.4487934857059 1173.1689584399323 438.682515895644Q1175.483598872433 435.9444656279296 1175.483598872433 427.4198142789634L1175.483598872433 427.4198142789634L1175.483598872433 394.4785290993485Q1175.483598872433 382.28432584519794 1171.023681941517 376.695316020379Q1166.563765010601 371.10630619556 1156.7971114783415 371.10630619556L1156.7971114783415 371.10630619556Q1149.4862349903206 371.10630619556 1141.7519486670863 375.7920417052568Q1134.0458896661996 380.47777721495345 1128.5415618084235 388.60724605105383L1128.5415618084235 388.60724605105383L1127.7229694603438 386.1514690068152Q1136.6710306445239 374.15485700909767 1145.5061825393132 368.4811652172359Q1154.3695617564504 362.7792461030267 1163.5152141970634 362.7792461030267L1163.5152141970634 362.7792461030267Q1174.6932338467013 362.7792461030267 1180.8750174408192 368.98925701949224Q1187.0850283572845 375.1710406136102 1187.0850283572845 387.5910624465413L1187.0850283572845 387.5910624465413L1187.0850283572845 427.4198142789634Q1187.0850283572845 435.9444656279296 1189.427896112133 438.682515895644Q1191.7425365446338 441.4487934857059 1199.6744141243012 441.4487934857059L1199.6744141243012 441.4487934857059Q1200.2954152159477 441.4487934857059 1200.2954152159477 442.6625683466515Q1200.2954152159477 443.87634320759696 1199.6744141243012 443.87634320759696L1199.6744141243012 443.87634320759696Q1196.2306807978975 443.87634320759696 1191.460263321158 443.67875195116403Q1186.6616185220712 443.481160694731 1181.3831092430755 443.481160694731L1181.3831092430755 443.481160694731Q1176.1045999640799 443.481160694731 1171.22127319795 443.67875195116403Q1166.3379464318205 443.87634320759696 1162.8942131054168 443.87634320759696ZM1108.2178897181725 443.87634320759696L1108.2178897181725 443.87634320759696Q1107.6251159488736 443.87634320759696 1107.6251159488736 442.6625683466515Q1107.6251159488736 441.4487934857059 1108.2178897181725 441.4487934857059L1108.2178897181725 441.4487934857059Q1116.1497672978398 441.4487934857059 1118.4926350526882 438.682515895644Q1120.8355028075366 435.9444656279296 1120.8355028075366 427.4198142789634L1120.8355028075366 427.4198142789634L1120.8355028075366 387.16765261132764Q1120.8355028075366 380.47777721495345 1119.3112274007676 377.31631711202556Q1117.786951993999 374.15485700909767 1113.722217575949 374.15485700909767L1113.722217575949 374.15485700909767Q1111.6898503669236 374.15485700909767 1108.9235727768619 374.9734493571772Q1106.1855225091474 375.7920417052568 1102.7417891827438 377.2034078226353L1102.7417891827438 377.2034078226353Q1101.9231968346644 377.4292264014158 1101.415105032408 376.41304279690326Q1100.9070132301517 375.3968591923907 1101.7256055782314 374.9734493571772L1101.7256055782314 374.9734493571772L1125.295419738453 363.79542970753926Q1125.9164208300995 363.5978384511062 1126.5091945993981 363.5978384511062L1126.5091945993981 363.5978384511062Q1127.9487880391243 363.5978384511062 1130.1787465045825 367.86016412558945Q1132.4087049700406 372.1224898000726 1132.4087049700406 380.25195863617284L1132.4087049700406 380.25195863617284L1132.4087049700406 427.4198142789634Q1132.4087049700406 435.9444656279296 1134.7515727248888 438.682515895644Q1137.0944404797374 441.4487934857059 1144.9980907370568 441.4487934857059L1144.9980907370568 441.4487934857059Q1145.6190918287034 441.4487934857059 1145.6190918287034 442.6625683466515Q1145.6190918287034 443.87634320759696 1144.9980907370568 443.87634320759696L1144.9980907370568 443.87634320759696Q1141.5543574106532 443.87634320759696 1136.783939933914 443.67875195116403Q1132.0135224571745 443.481160694731 1126.7067858558312 443.481160694731L1126.7067858558312 443.481160694731Q1121.4282765768355 443.481160694731 1116.544949810706 443.67875195116403Q1111.6898503669236 443.87634320759696 1108.2178897181725 443.87634320759696ZM1248.6488183973363 446.30389292948803L1248.6488183973363 446.30389292948803Q1236.4546151431857 446.30389292948803 1228.1275550506523 440.71488310466907Q1219.8004949581189 435.1258732798501 1215.6228512506787 426.2060394180178Q1211.473434865586 417.2579782338379 1211.473434865586 407.29373344514556L1211.473434865586 407.29373344514556Q1211.473434865586 394.90193893456205 1217.1471266574474 385.05060343525986Q1222.8490457716566 375.1710406136102 1232.7003812709588 369.3844395323582Q1242.551716770261 363.5978384511062 1254.3507375115453 363.5978384511062L1254.3507375115453 363.5978384511062Q1265.9239396740493 363.5978384511062 1271.936359334082 369.6949400781815Q1277.9205516717668 375.7920417052568 1277.9205516717668 386.77247009846167L1277.9205516717668 386.77247009846167Q1277.9205516717668 389.3976110767858 1277.4124598695105 390.7242952271216Q1276.9043680672544 392.05097937745745 1275.4930019498759 392.05097937745745L1275.4930019498759 392.05097937745745L1264.117391043805 392.05097937745745Q1264.9077560695368 379.65918486687394 1260.4478391386208 373.64676520684134Q1255.9879222077045 367.6625728691564 1247.6326347928236 367.6625728691564L1247.6326347928236 367.6625728691564Q1236.8780249783993 367.6625728691564 1230.8656053183668 376.18722421812276Q1224.8814129806817 384.74010288943657 1224.8814129806817 399.55944712191115L1224.8814129806817 399.55944712191115Q1224.8814129806817 411.1608766067627 1228.5509648858658 420.1089377909426Q1232.1922894687025 429.0287716527748 1239.3055747002902 434.10968967533756Q1246.4188599318782 439.1906076979003 1256.5806959770036 439.1906076979003L1256.5806959770036 439.1906076979003Q1263.4963899521583 439.1906076979003 1267.9563068830744 437.1582404888752Q1272.4444511363383 435.1258732798501 1276.9043680672544 432.500732301526L1276.9043680672544 432.500732301526Q1277.327777902468 432.07732246631247 1278.033460961157 433.00882410378233Q1278.7391440198464 433.9120984189045 1278.3439615069803 434.5330995105511L1278.3439615069803 434.5330995105511Q1271.2306762753926 440.8277923940593 1263.8068904979816 443.5658426617737Q1256.3831047205706 446.30389292948803 1248.6488183973363 446.30389292948803ZM1267.1659418573424 392.05097937745745L1221.2118610754976 392.2485706338904L1221.0142698190646 389.6234296555664L1267.1659418573424 388.80483730748676L1267.1659418573424 392.05097937745745Z " fill="white" transform="matrix(0.684403378261415,0,0,0.684403378261415,0,45.72380073703685)"/></g></svg>